<mxfile host="app.diagrams.net">
  <diagram name="Bibliothek ER-Diagramm" id="1">
    <mxGraphModel dx="1480" dy="800" grid="1" gridSize="10" guides="1" tooltips="1" connect="1" arrows="1" fold="1" page="1" pageScale="1" pageWidth="827" pageHeight="1169">
      <root>
        <mxCell id="0"/>
        <mxCell id="1" parent="0"/>

        <!-- Entity: BUCH -->
        <mxCell id="buch" value="BUCH" style="shape=rectangle;whiteSpace=wrap;html=1;" vertex="1" parent="1">
          <mxGeometry x="320" y="80" width="100" height="40" as="geometry"/>
        </mxCell>
        <mxCell id="titel" value="Titel" style="ellipse;whiteSpace=wrap;html=1;" vertex="1" parent="1">
          <mxGeometry x="200" y="40" width="80" height="30" as="geometry"/>
        </mxCell>
        <mxCell id="isbn" value="ISBN (PK)" style="ellipse;whiteSpace=wrap;html=1;fontStyle=4;" vertex="1" parent="1">
          <mxGeometry x="200" y="80" width="100" height="30" as="geometry"/>
        </mxCell>
        <mxCell id="seiten" value="Seitenanzahl" style="ellipse;whiteSpace=wrap;html=1;" vertex="1" parent="1">
          <mxGeometry x="200" y="120" width="100" height="30" as="geometry"/>
        </mxCell>
        <mxCell id="inventar" value="Inventarnummer" style="ellipse;whiteSpace=wrap;html=1;" vertex="1" parent="1">
          <mxGeometry x="200" y="160" width="120" height="30" as="geometry"/>
        </mxCell>

        <!-- Entity: AUTOR -->
        <mxCell id="autor" value="AUTOR:IN" style="shape=rectangle;whiteSpace=wrap;html=1;" vertex="1" parent="1">
          <mxGeometry x="40" y="80" width="100" height="40" as="geometry"/>
        </mxCell>
        <mxCell id="autorname" value="Name" style="ellipse;whiteSpace=wrap;html=1;" vertex="1" parent="1">
          <mxGeometry x="20" y="40" width="80" height="30" as="geometry"/>
        </mxCell>

        <!-- Entity: VERLAG -->
        <mxCell id="verlag" value="VERLAG" style="shape=rectangle;whiteSpace=wrap;html=1;" vertex="1" parent="1">
          <mxGeometry x="520" y="80" width="100" height="40" as="geometry"/>
        </mxCell>
        <mxCell id="verlagname" value="Name" style="ellipse;whiteSpace=wrap;html=1;" vertex="1" parent="1">
          <mxGeometry x="640" y="80" width="80" height="30" as="geometry"/>
        </mxCell>
        <mxCell id="verlagadr" value="Adresse" style="ellipse;whiteSpace=wrap;html=1;" vertex="1" parent="1">
          <mxGeometry x="640" y="120" width="80" height="30" as="geometry"/>
        </mxCell>

        <!-- Entity: PERSON -->
        <mxCell id="person" value="PERSON" style="shape=rectangle;whiteSpace=wrap;html=1;" vertex="1" parent="1">
          <mxGeometry x="320" y="260" width="100" height="40" as="geometry"/>
        </mxCell>
        <mxCell id="pname" value="Name" style="ellipse;whiteSpace=wrap;html=1;" vertex="1" parent="1">
          <mxGeometry x="200" y="240" width="80" height="30" as="geometry"/>
        </mxCell>
        <mxCell id="pemail" value="E-Mailadresse" style="ellipse;whiteSpace=wrap;html=1;" vertex="1" parent="1">
          <mxGeometry x="200" y="280" width="100" height="30" as="geometry"/>
        </mxCell>
        <mxCell id="ptel" value="Telefonnummer" style="ellipse;whiteSpace=wrap;html=1;" vertex="1" parent="1">
          <mxGeometry x="200" y="320" width="100" height="30" as="geometry"/>
        </mxCell>

        <!-- Entity: AUSLEIHE -->
        <mxCell id="ausleihe" value="AUSLEIHE" style="shape=rectangle;whiteSpace=wrap;html=1;" vertex="1" parent="1">
          <mxGeometry x="520" y="260" width="100" height="40" as="geometry"/>
        </mxCell>
        <mxCell id="adatum" value="Ausleihdatum" style="ellipse;whiteSpace=wrap;html=1;" vertex="1" parent="1">
          <mxGeometry x="640" y="240" width="100" height="30" as="geometry"/>
        </mxCell>
        <mxCell id="fdatum" value="FÃ¤lligkeitsdatum" style="ellipse;whiteSpace=wrap;html=1;" vertex="1" parent="1">
          <mxGeometry x="640" y="280" width="110" height="30" as="geometry"/>
        </mxCell>

      </root>
    </mxGraphModel>
  </diagram>
</mxfile>
